<svg width="157" height="157" viewBox="0 0 157 157" fill="none" xmlns="http://www.w3.org/2000/svg">
<path d="M58.1336 139.556C63.5529 139.556 67.9461 135.162 67.9461 129.743C67.9461 124.324 63.5529 119.931 58.1336 119.931C52.7143 119.931 48.3211 124.324 48.3211 129.743C48.3211 135.162 52.7143 139.556 58.1336 139.556Z" fill="#F24E1E"/>
<path d="M117.75 139.556C123.169 139.556 127.562 135.162 127.562 129.743C127.562 124.324 123.169 119.931 117.75 119.931C112.331 119.931 107.938 124.324 107.938 129.743C107.938 135.162 112.331 139.556 117.75 139.556Z" fill="#F24E1E"/>
<path d="M144.266 23.4192C143.86 22.9189 143.348 22.5147 142.767 22.2357C142.187 21.9567 141.552 21.8098 140.907 21.8055H50.1092L52.9439 30.5278H135.194L123.55 82.8611H58.1336L38.2033 19.7558C37.9877 19.0862 37.6134 18.4787 37.1122 17.9851C36.611 17.4915 35.9978 17.1264 35.325 16.9211L17.4444 11.4261C16.8946 11.2572 16.3169 11.1982 15.7443 11.2525C15.1717 11.3068 14.6154 11.4733 14.1072 11.7426C13.0808 12.2865 12.3124 13.2159 11.9712 14.3262C11.63 15.4366 11.7439 16.6371 12.2878 17.6635C12.8316 18.6899 13.761 19.4582 14.8714 19.7994L30.5278 24.5967L50.5453 87.8328L43.393 93.6767L42.8261 94.2436C41.057 96.2824 40.0542 98.8743 39.9905 101.573C39.9268 104.271 40.8062 106.908 42.4772 109.028C43.6659 110.473 45.1763 111.621 46.8878 112.378C48.5992 113.135 50.4641 113.481 52.3333 113.389H125.12C126.277 113.389 127.386 112.929 128.204 112.112C129.022 111.294 129.481 110.184 129.481 109.028C129.481 107.871 129.022 106.762 128.204 105.944C127.386 105.126 126.277 104.667 125.12 104.667H51.6355C51.1333 104.649 50.6441 104.503 50.2149 104.242C49.7858 103.98 49.4314 103.613 49.1859 103.174C48.9404 102.736 48.8121 102.241 48.8134 101.739C48.8147 101.236 48.9455 100.743 49.1933 100.306L59.7036 91.5833H127.039C128.047 91.608 129.033 91.2825 129.828 90.6623C130.623 90.042 131.179 89.1654 131.4 88.1817L145.225 27.1261C145.358 26.4759 145.34 25.8041 145.174 25.1617C145.008 24.5193 144.697 23.9233 144.266 23.4192V23.4192Z" fill="#F24E1E"/>
</svg>
